<mxfile host="65bd71144e" scale="1" border="10">
    <diagram id="kfTVmwWISBdbtJeBJr2f" name="Page-1">
        <mxGraphModel dx="774" dy="655" grid="1" gridSize="10" guides="1" tooltips="1" connect="1" arrows="1" fold="1" page="1" pageScale="1" pageWidth="827" pageHeight="1169" background="#ffffff" math="0" shadow="0">
            <root>
                <mxCell id="0"/>
                <mxCell id="1" parent="0"/>
                <mxCell id="11" value="" style="edgeStyle=none;html=1;fontColor=#000000;" edge="1" parent="1" source="4" target="5">
                    <mxGeometry relative="1" as="geometry"/>
                </mxCell>
                <mxCell id="4" value="Machine wise&lt;br&gt;Checklist assigned&lt;br&gt;to a person" style="html=1;" vertex="1" parent="1">
                    <mxGeometry x="310" y="30" width="110" height="50" as="geometry"/>
                </mxCell>
                <mxCell id="8" value="" style="edgeStyle=none;html=1;entryX=0;entryY=0.5;entryDx=0;entryDy=0;" edge="1" parent="1" source="5" target="9">
                    <mxGeometry relative="1" as="geometry">
                        <mxPoint x="539.9999999999998" y="212.5" as="targetPoint"/>
                    </mxGeometry>
                </mxCell>
                <mxCell id="10" value="&lt;font color=&quot;#000000&quot;&gt;Data Saved&lt;/font&gt;" style="edgeLabel;html=1;align=center;verticalAlign=middle;resizable=0;points=[];fontColor=#FFFFFF;" vertex="1" connectable="0" parent="8">
                    <mxGeometry x="-0.2683" y="-1" relative="1" as="geometry">
                        <mxPoint x="66" y="-1" as="offset"/>
                    </mxGeometry>
                </mxCell>
                <mxCell id="12" value="Yes" style="edgeLabel;html=1;align=center;verticalAlign=middle;resizable=0;points=[];fontColor=#000000;" vertex="1" connectable="0" parent="8">
                    <mxGeometry x="-0.5855" relative="1" as="geometry">
                        <mxPoint as="offset"/>
                    </mxGeometry>
                </mxCell>
                <mxCell id="14" value="" style="edgeStyle=none;html=1;fontColor=#000000;" edge="1" parent="1" source="5">
                    <mxGeometry relative="1" as="geometry">
                        <mxPoint x="364.99662162162144" y="360" as="targetPoint"/>
                    </mxGeometry>
                </mxCell>
                <mxCell id="15" value="No,&lt;br&gt;Notification to Supervisor" style="edgeLabel;html=1;align=center;verticalAlign=middle;resizable=0;points=[];fontColor=#000000;" vertex="1" connectable="0" parent="14">
                    <mxGeometry x="-0.3523" y="1" relative="1" as="geometry">
                        <mxPoint as="offset"/>
                    </mxGeometry>
                </mxCell>
                <mxCell id="5" value="Cheklist &lt;br&gt;Completed&lt;br&gt;on time" style="rhombus;whiteSpace=wrap;html=1;fillColor=rgb(255, 255, 255);" vertex="1" parent="1">
                    <mxGeometry x="314.38" y="160" width="101.25" height="90" as="geometry"/>
                </mxCell>
                <mxCell id="9" value="End" style="ellipse;html=1;shape=endState;fillColor=#000000;strokeColor=#ff0000;fontColor=#FFFFFF;" vertex="1" parent="1">
                    <mxGeometry x="630" y="174" width="60" height="62" as="geometry"/>
                </mxCell>
                <mxCell id="16" value="" style="endArrow=none;startArrow=none;endFill=0;startFill=0;endSize=8;html=1;verticalAlign=bottom;labelBackgroundColor=none;strokeWidth=3;fontColor=#000000;" edge="1" parent="1">
                    <mxGeometry width="160" relative="1" as="geometry">
                        <mxPoint x="210" y="360" as="sourcePoint"/>
                        <mxPoint x="520" y="360" as="targetPoint"/>
                    </mxGeometry>
                </mxCell>
                <mxCell id="23" style="edgeStyle=orthogonalEdgeStyle;html=1;entryX=0;entryY=0.5;entryDx=0;entryDy=0;fontColor=#000000;" edge="1" parent="1" source="17" target="21">
                    <mxGeometry relative="1" as="geometry"/>
                </mxCell>
                <mxCell id="17" value="Investigate the Issue" style="html=1;fontColor=#000000;" vertex="1" parent="1">
                    <mxGeometry x="310" y="420" width="110" height="50" as="geometry"/>
                </mxCell>
                <mxCell id="22" style="edgeStyle=orthogonalEdgeStyle;html=1;entryX=1;entryY=0.5;entryDx=0;entryDy=0;fontColor=#000000;" edge="1" parent="1" source="18" target="21">
                    <mxGeometry relative="1" as="geometry"/>
                </mxCell>
                <mxCell id="18" value="Ignore" style="html=1;fontColor=#000000;" vertex="1" parent="1">
                    <mxGeometry x="460" y="420" width="110" height="50" as="geometry"/>
                </mxCell>
                <mxCell id="20" style="edgeStyle=none;html=1;entryX=0;entryY=0.5;entryDx=0;entryDy=0;fontColor=#000000;" edge="1" parent="1" source="19" target="4">
                    <mxGeometry relative="1" as="geometry">
                        <Array as="points">
                            <mxPoint x="110" y="445"/>
                            <mxPoint x="110" y="55"/>
                        </Array>
                    </mxGeometry>
                </mxCell>
                <mxCell id="19" value="Reassign the task" style="html=1;fontColor=#000000;" vertex="1" parent="1">
                    <mxGeometry x="160" y="420" width="110" height="50" as="geometry"/>
                </mxCell>
                <mxCell id="21" value="End" style="ellipse;html=1;shape=endState;fillColor=#000000;strokeColor=#ff0000;fontColor=#FFFFFF;" vertex="1" parent="1">
                    <mxGeometry x="400" y="530" width="60" height="62" as="geometry"/>
                </mxCell>
                <mxCell id="24" value="" style="edgeStyle=none;orthogonalLoop=1;jettySize=auto;html=1;fontColor=#000000;entryX=0.5;entryY=0;entryDx=0;entryDy=0;" edge="1" parent="1" target="19">
                    <mxGeometry width="100" relative="1" as="geometry">
                        <mxPoint x="215" y="360" as="sourcePoint"/>
                        <mxPoint x="260" y="390" as="targetPoint"/>
                        <Array as="points"/>
                    </mxGeometry>
                </mxCell>
                <mxCell id="25" value="" style="edgeStyle=none;orthogonalLoop=1;jettySize=auto;html=1;fontColor=#000000;entryX=0.5;entryY=0;entryDx=0;entryDy=0;" edge="1" parent="1" target="17">
                    <mxGeometry width="100" relative="1" as="geometry">
                        <mxPoint x="365" y="360" as="sourcePoint"/>
                        <mxPoint x="420" y="380" as="targetPoint"/>
                        <Array as="points"/>
                    </mxGeometry>
                </mxCell>
                <mxCell id="26" value="" style="edgeStyle=none;orthogonalLoop=1;jettySize=auto;html=1;fontColor=#000000;entryX=0.5;entryY=0;entryDx=0;entryDy=0;" edge="1" parent="1" target="18">
                    <mxGeometry width="100" relative="1" as="geometry">
                        <mxPoint x="515" y="360" as="sourcePoint"/>
                        <mxPoint x="580" y="380" as="targetPoint"/>
                        <Array as="points"/>
                    </mxGeometry>
                </mxCell>
                <mxCell id="28" value="Any One of three options" style="text;html=1;align=center;verticalAlign=middle;resizable=0;points=[];autosize=1;strokeColor=none;fillColor=none;fontColor=#000000;" vertex="1" parent="1">
                    <mxGeometry x="360" y="335" width="160" height="30" as="geometry"/>
                </mxCell>
            </root>
        </mxGraphModel>
    </diagram>
</mxfile>